<svg
      width="794"
      height="573"
      viewBox="0 0 794 573"
      fill="none"
      xmlns="http://www.w3.org/2000/svg"
    >
      <path
        d="M794 500.302V573H0C0 573 33.6794 513.268 109.916 467.781C109.916 467.781 123.983 469.179 123.102 459.769C122.222 450.359 116.938 438.981 123.102 444.22C129.267 449.482 129.267 463.206 131.885 457.209C134.503 451.212 131.004 438.057 135.408 442.892C139.811 447.728 144.191 457.114 147.713 451.971C151.236 446.827 219.808 427.58 225.092 426.703C230.376 425.826 227.592 414.591 229.067 414.33C236.517 412.931 229.115 424.949 237.207 421.465C245.3 417.956 269.054 417.743 279.598 411.296C290.142 404.849 484.483 386.455 626.912 417.53C769.365 448.605 793.976 500.302 793.976 500.302H794Z"
        fill="#EBEBF9"
      />
      <path
        d="M386.386 268.602C386.05 268.602 385.714 268.453 385.508 268.154C382.578 264.067 377.222 252.085 376.662 246.561C376.102 241.037 379.256 227.842 379.387 227.282C379.517 226.703 380.096 226.349 380.693 226.479C381.272 226.61 381.626 227.207 381.496 227.786C381.458 227.916 378.304 241.186 378.808 246.337C379.331 251.469 384.538 263.078 387.263 266.885C387.617 267.371 387.505 268.042 387.02 268.397C386.834 268.528 386.61 268.602 386.386 268.602Z"
        fill="#8C7CBD"
      />
      <path
        d="M401.727 390.605L394.616 390.082C402.324 388.011 407.102 375.599 410.088 367.07C410.648 365.465 411.189 363.935 411.73 362.535C414.399 355.611 414.623 334.055 414.474 325.768C413.354 321.868 410.387 312.368 408.315 309.27C407.419 307.926 407.102 306.433 407.419 304.94C408.072 301.805 411.283 299.789 414.101 297.997C414.997 297.419 416.303 296.598 416.844 296.094C417.479 292.1 422.126 290.849 425.579 289.916C426.661 289.636 427.688 289.356 428.509 289.058C431.85 285.997 446.463 258.021 449.692 243.015C452.417 230.324 447.807 225.864 447.769 225.826L451.987 220.899C452.771 221.552 459.583 227.805 456.037 244.378C453.275 257.255 437.281 292.529 431.196 294.974C429.983 295.459 428.602 295.832 427.277 296.187C426.027 296.523 423.992 297.064 423.227 297.549C422.817 300.162 420.278 301.767 417.591 303.466C416.546 304.138 414.698 305.295 414.007 306.06C417.068 311.006 420.484 323.006 420.875 324.406L420.987 325.227C421.043 328.288 421.454 355.35 417.815 364.849C417.292 366.193 416.788 367.668 416.247 369.198C412.906 378.754 412.776 387.637 401.764 390.586L401.727 390.605Z"
        fill="#E5C8F9"
      />
      <path
        d="M522.031 325.88C516.917 323.361 503.647 320.767 495.715 319.087C492.319 318.359 489.389 317.743 487.186 317.183C482.483 315.989 479.217 317.314 476.343 318.49C475.298 318.919 474.29 319.329 473.282 319.572C469.251 320.58 466.507 316.623 464.51 313.712C464.305 313.413 464.044 313.04 463.801 312.685L463.745 312.723C461.226 314.197 457.754 316.213 454.488 315.261C452.939 314.813 451.689 313.749 450.905 312.219C449.916 310.278 449.43 308.262 449.02 306.47C448.404 303.876 447.975 302.234 446.687 301.207C442.282 297.68 442.301 296.019 442.189 295.515L445.511 290.121C445.511 290.121 448.18 294.097 450.737 296.15C453.816 298.613 454.619 302.01 455.328 304.996C455.664 306.452 456 307.814 456.56 309.009C457.586 308.822 459.639 307.628 460.479 307.142C461.673 306.452 462.532 305.948 463.446 305.724C466.358 304.996 468.168 307.572 469.885 310.054C470.501 310.95 471.584 312.517 472.274 313.133C472.741 312.965 473.301 312.741 473.917 312.499C477.145 311.174 482.035 309.177 488.81 310.912C490.882 311.435 493.756 312.051 497.078 312.76C505.812 314.608 514.229 317.053 520.071 319.927L522.049 325.899L522.031 325.88Z"
        fill="#E5C8F9"
      />
      <path
        d="M558.779 361.005C558.574 361.005 558.368 360.949 558.182 360.837C546.125 352.98 518.97 350.759 518.69 350.74C518.093 350.703 517.645 350.18 517.701 349.583C517.738 348.986 518.28 348.501 518.858 348.594C519.997 348.687 546.834 350.871 559.358 359.027C559.861 359.363 559.992 360.016 559.675 360.52C559.47 360.837 559.115 361.005 558.76 361.005H558.779Z"
        fill="#8C7CBD"
      />
      <path
        d="M549.074 339.766C548.383 339.766 547.543 339.635 546.591 339.355C542.747 338.254 522.385 327.299 521.508 326.832C520.985 326.552 520.78 325.899 521.06 325.376C521.34 324.854 522.012 324.667 522.516 324.928C529.776 328.829 544.259 336.444 547.151 337.265C548.775 337.731 549.41 337.582 549.578 337.526C549.69 337.041 550.119 336.686 550.623 336.686C551.22 336.686 551.705 337.171 551.705 337.769C551.705 338.198 551.5 338.795 550.921 339.224C550.455 339.579 549.82 339.766 549.018 339.766H549.074Z"
        fill="#8C7CBD"
      />
      <path
        d="M560.403 325.339C560.403 325.339 550.138 335.342 550.138 336.425C550.138 337.507 557.435 343.984 557.977 346.148C558.518 348.313 563.389 345.607 564.733 346.148C566.076 346.69 565.815 350.478 562.026 351.281C558.238 352.083 558.518 361.826 559.862 363.169C561.205 364.513 572.833 370.467 579.309 377.223C585.785 383.979 589.312 390.735 592 391.818C594.706 392.9 597.412 393.703 598.215 388.309C599.017 382.897 599.838 371.288 592.802 362.908C585.785 354.528 582.799 353.726 580.634 353.726C578.469 353.726 574.96 353.987 576.304 351.02C577.648 348.052 580.634 345.346 579.551 342.92C578.469 340.493 570.089 324.536 560.365 325.358L560.403 325.339Z"
        fill="#8C7CBD"
      />
      <path
        d="M597.953 395.774C595.732 395.774 594.445 394.486 594.015 393.647C593.754 393.105 593.959 392.471 594.501 392.191C595.042 391.93 595.676 392.135 595.938 392.657C596.031 392.807 596.759 394.02 599.036 393.46C602.134 392.676 604.56 391.799 605.269 388.104C606.053 383.942 605.456 372.837 600.548 364.812C598.047 360.743 594.687 357.589 592 355.051C589.088 352.307 586.774 350.142 586.606 347.828C586.55 346.988 586.531 346.148 586.513 345.271C586.438 342.248 586.363 339.131 584.572 335.529C582.127 330.639 576.304 324.256 570.798 321.998C565.74 319.926 563.464 320.841 561.392 325.749C561.149 326.291 560.533 326.552 559.974 326.328C559.432 326.104 559.171 325.469 559.395 324.91C561.914 318.919 565.461 317.5 571.601 320.001C577.797 322.539 583.9 329.407 586.475 334.577C588.491 338.608 588.566 342.117 588.659 345.234C588.678 346.074 588.696 346.876 588.752 347.698C588.864 349.153 590.992 351.169 593.456 353.483C596.255 356.096 599.726 359.362 602.377 363.692C607.901 372.725 608.125 384.52 607.378 388.514C606.445 393.46 603.011 394.71 599.558 395.588C598.98 395.737 598.439 395.793 597.935 395.793L597.953 395.774Z"
        fill="#8C7CBD"
      />
      <path
        d="M405.59 226.461C400.29 226.461 390.678 225.77 385.639 221.104C382.933 218.604 381.608 216.588 380.413 214.815C379.406 213.285 378.528 211.959 376.923 210.466C372.78 206.584 374.479 202.087 374.553 201.9C374.777 201.34 375.393 201.079 375.953 201.284C376.513 201.508 376.774 202.124 376.569 202.684C376.513 202.814 375.356 206.043 378.398 208.899C380.189 210.56 381.179 212.053 382.224 213.62C383.381 215.375 384.594 217.185 387.114 219.518C392.302 224.333 403.817 224.389 407.251 224.277C407.849 224.259 408.352 224.725 408.371 225.322C408.371 225.92 407.923 226.424 407.326 226.442C406.822 226.442 406.243 226.461 405.609 226.461H405.59Z"
        fill="#8C7CBD"
      />
      <path
        d="M413.541 236.091C402.94 236.091 392.582 234.113 387.076 231.948C375.636 227.468 375.972 222.653 376.345 221.291C376.494 220.75 376.681 220.283 376.849 219.854C377.297 218.734 377.446 218.323 376.774 217.316C375.225 215.001 376.476 209.981 376.625 209.421C376.774 208.842 377.353 208.488 377.95 208.656C378.529 208.805 378.883 209.402 378.715 209.981C378.211 211.885 377.838 215.057 378.566 216.14C379.872 218.099 379.35 219.406 378.846 220.675C378.697 221.048 378.547 221.44 378.417 221.888C377.913 223.717 380.078 226.909 387.86 229.969C397.211 233.646 421.006 236.781 435.097 230.007C457.96 218.995 459.583 214.927 459.527 213.938C459.49 213.004 459.378 211.997 459.266 210.951C458.949 207.965 458.576 204.587 459.602 201.956C460.871 198.671 462.14 195.405 460.834 191.318C459.901 188.425 459.695 184.095 459.509 179.914C459.378 177.376 459.266 174.969 459.005 173.14C458.24 167.988 456.616 164.274 455.963 163.733C455.496 163.36 455.44 162.669 455.832 162.203C456.224 161.736 456.896 161.68 457.362 162.072C458.93 163.379 460.535 168.567 461.151 172.841C461.431 174.782 461.562 177.227 461.674 179.84C461.86 183.89 462.066 188.07 462.905 190.702C464.436 195.517 462.98 199.306 461.674 202.646C460.796 204.923 461.114 207.891 461.412 210.765C461.524 211.847 461.636 212.892 461.692 213.863C461.804 216.289 459.285 220.806 436.049 231.985C429.741 235.027 421.566 236.166 413.56 236.166L413.541 236.091Z"
        fill="#8C7CBD"
      />
      <path
        d="M510.777 237.957C505.271 237.957 499.169 236.726 496.388 236.091C492.039 235.102 491.181 229.391 490.546 225.229C490.322 223.699 489.967 221.403 489.538 221.03C486.963 219.313 486.533 217.801 486.533 213.844C486.533 211.791 485.358 210.242 483.995 208.432C483.155 207.312 482.297 206.155 481.606 204.774C480.095 201.751 474.85 186.988 476.138 182.733C477.034 179.746 473.394 173.046 467.422 170.713C460.927 168.175 447.956 160.15 447.415 159.814C446.911 159.497 446.743 158.825 447.06 158.321C447.378 157.817 448.05 157.668 448.554 157.966C448.684 158.041 461.898 166.234 468.206 168.679C475.018 171.329 479.46 179.075 478.21 183.33C477.276 186.409 481.644 199.996 483.547 203.785C484.145 204.998 484.966 206.08 485.75 207.107C487.205 209.048 488.717 211.064 488.717 213.826C488.717 217.521 489.072 218.1 490.751 219.219C491.946 220.022 492.263 222.056 492.692 224.893C493.271 228.644 493.98 233.31 496.873 233.963C506.876 236.259 518.168 236.856 519.381 232.788C520.389 229.372 519.959 223.96 519.568 219.182C519.288 215.711 519.026 212.426 519.344 210.242C519.81 206.939 513.689 183.964 510.012 170.247C508.239 163.584 506.82 158.321 506.391 156.212C505.085 150.053 467.348 122.73 457.68 118.792C449.356 115.395 436.926 110.953 424.982 111.308C424.664 111.345 424.347 111.177 424.142 110.953C422.014 108.565 419.289 105.877 418.226 105.261C418.058 105.448 417.796 105.709 417.572 105.97C414.997 108.751 408.969 115.283 400.328 114.182C392.881 113.23 388.551 111.495 386.517 110.636C386.479 111.495 386.33 112.558 385.546 113.342C385.49 113.398 385.434 113.436 385.378 113.492C385.192 113.604 380.768 116.384 368.656 115.283C356.898 114.22 350.44 113.622 339.168 102.368C336.014 99.2142 332.356 95.3696 328.455 91.2823C319.403 81.7827 309.139 71.0139 305.219 69.0543C300.74 66.8147 292.677 65.9188 289.766 65.6575C289.449 69.0729 287.788 79.0391 279.333 82.3799C279.352 83.7236 279.93 87.6803 285.119 94.4551C285.884 95.4442 286.836 96.732 287.974 98.2064C296.69 109.74 317.126 136.727 323.603 139.508C325.693 140.404 329.164 141.655 333.196 143.092C344.114 147.011 357.719 151.882 361.769 155.951C365.203 159.385 368.152 172.412 370.765 183.908C372.295 190.627 373.863 197.589 374.796 198.708C376.196 200.388 379.07 201.844 381.384 203.02C383.736 204.214 385.098 204.942 385.677 205.819C386.013 206.323 385.882 206.995 385.378 207.312C384.893 207.629 384.202 207.517 383.885 207.014C383.568 206.547 381.814 205.651 380.414 204.942C377.932 203.673 374.833 202.105 373.154 200.089C371.941 198.634 370.727 193.445 368.675 184.375C366.379 174.278 363.243 160.449 360.257 157.462C356.543 153.748 342.639 148.765 332.468 145.107C328.418 143.652 324.909 142.401 322.763 141.468C315.745 138.463 295.832 112.129 286.257 99.4755C285.137 98.0011 284.167 96.732 283.42 95.7242C276.291 86.3925 277.168 81.7827 277.28 81.2974C277.374 80.9428 277.635 80.6442 277.989 80.5322C287.228 77.3968 287.694 64.5377 287.713 64.4071C287.713 64.1085 287.844 63.8285 288.068 63.6419C288.292 63.4366 288.572 63.3433 288.87 63.362C289.337 63.3993 300.329 64.1271 306.208 67.076C310.464 69.2036 320.43 79.655 330.041 89.7519C333.923 93.8205 337.581 97.6651 340.717 100.801C351.43 111.513 357.253 112.036 368.88 113.1C379.107 114.033 383.4 112.092 384.128 111.7C384.389 111.327 384.389 110.58 384.408 110.058C384.408 109.46 384.445 108.042 385.733 108.042C386.069 108.042 386.367 108.173 387.077 108.471C388.868 109.236 393.049 111.047 400.645 112.017C408.166 112.969 413.672 107.015 416.042 104.477C416.807 103.637 417.143 103.301 417.498 103.115C418.132 102.798 419.271 102.219 425.486 109.106C437.654 108.882 450.177 113.342 458.576 116.758C468.318 120.733 506.988 148.112 508.593 155.727C509.023 157.761 510.422 163.005 512.195 169.65C517.627 189.955 522.068 207.051 521.583 210.504C521.303 212.463 521.546 215.617 521.826 218.977C522.218 223.941 522.666 229.559 521.546 233.366C520.519 236.875 515.947 237.901 510.889 237.901L510.777 237.957Z"
        fill="#8C7CBD"
      />
      <path
        d="M400.159 123.309C396.65 123.309 393.328 122.749 390.361 121.722C379.573 118.008 379.685 114.369 379.816 113.66C379.928 113.062 380.507 112.689 381.085 112.801C381.645 112.913 382.018 113.417 381.962 113.977C381.981 114.164 382.392 116.683 391.07 119.669C400.7 122.991 414.661 121.144 424.104 109.554C424.477 109.087 425.168 109.031 425.635 109.404C426.101 109.778 426.157 110.468 425.784 110.935C418.561 119.781 408.875 123.309 400.159 123.309V123.309Z"
        fill="#8C7CBD"
      />
      <path
        d="M305.667 37.8304L172 14.408L295.589 18.7379L305.667 37.8304Z"
        fill="#E5C8F9"
      />
      <path
        d="M283.663 18.3274V12.2432L172 14.4081L283.663 18.3274Z"
        fill="#CDA7EA"
      />
      <path
        d="M290.904 12.1125L267.836 0L172 14.4081L290.904 12.1125Z"
        fill="#E5C8F9"
      />
      <path
        d="M278.288 82.6786C277.989 82.6786 277.69 82.548 277.466 82.3054C277.298 82.1187 260.912 63.0635 256.004 59.2188C255.014 58.435 253.969 57.5765 252.868 56.6993C248.464 53.1159 243.481 49.0287 238.404 46.8824C231.685 44.0269 223.1 30.2347 222.727 29.6375C222.41 29.1336 222.578 28.4617 223.082 28.1444C223.585 27.8271 224.257 27.9951 224.575 28.499C224.668 28.6296 233.16 42.3099 239.244 44.8854C244.6 47.1623 249.714 51.3242 254.231 55.0196C255.313 55.8968 256.34 56.7366 257.329 57.5205C262.405 61.4958 278.418 80.1218 279.09 80.9056C279.482 81.3535 279.426 82.0441 278.978 82.436C278.773 82.604 278.53 82.6973 278.269 82.6973L278.288 82.6786Z"
        fill="#8C7CBD"
      />
      <path
        d="M245.552 27.1363L174.893 14.408L248.109 36.4307L245.552 27.1363Z"
        fill="#CDA7EA"
      />
      <path
        d="M258.878 39.6594L285.119 47.554L286.929 34.583L255.724 28.9653C255.724 28.9653 256.414 33.0153 256.806 34.6017C257.198 36.2067 258.878 39.6594 258.878 39.6594V39.6594Z"
        fill="#BD8BEA"
      />
      <path
        d="M390.697 112.148C390.604 112.148 390.492 112.148 390.398 112.11C389.82 111.942 389.502 111.345 389.652 110.767C389.67 110.692 391.686 103.581 389.689 98.6355C389.465 98.0756 389.726 97.4597 390.286 97.2357C390.846 97.0118 391.462 97.2731 391.686 97.833C393.963 103.469 391.817 111.047 391.723 111.364C391.593 111.83 391.145 112.148 390.678 112.148H390.697Z"
        fill="#8C7CBD"
      />
      <path
        d="M414.754 108.378C414.418 108.378 414.082 108.229 413.877 107.93C410.928 103.861 406.001 96.7506 406.188 94.735C406.244 94.1377 406.803 93.6898 407.363 93.7645C407.961 93.8205 408.39 94.343 408.334 94.9403C408.408 96.0601 412.178 101.902 415.613 106.661C415.967 107.146 415.855 107.818 415.37 108.173C415.183 108.303 414.959 108.378 414.735 108.378H414.754Z"
        fill="#8C7CBD"
      />
      <path
        d="M535.543 276.497C535.3 276.497 535.039 276.478 534.778 276.404C531.792 275.732 520.109 263.769 517.925 260.857C515.891 258.151 512.886 256.49 511.785 255.967C511.113 256.714 509.806 259.289 509.62 261.641C509.396 264.403 508.985 267.109 507.361 268.211C506.839 268.565 505.962 268.901 504.73 268.528C501.408 267.52 501.93 264.441 502.621 260.185L502.864 258.692C503.424 255.183 505.402 251.451 506.596 249.211C506.895 248.651 507.231 248.035 507.38 247.681C506.522 246.225 503.013 240.458 500.605 236.539C500.288 236.035 500.456 235.363 500.96 235.046C501.464 234.728 502.136 234.896 502.453 235.4C503.573 237.248 509.209 246.468 509.489 247.009C509.825 247.7 509.526 248.278 508.5 250.219C507.38 252.328 505.495 255.855 505.01 259.009L504.767 260.521C504.039 264.963 504.002 266.046 505.364 266.456C505.868 266.605 506.074 266.475 506.167 266.419C507.137 265.747 507.399 262.518 507.492 261.454C507.735 258.375 509.508 254.848 510.814 253.989C511.411 253.597 511.897 253.69 512.139 253.765C513.278 254.138 517.197 256.229 519.679 259.551C522.535 263.377 533.453 273.865 535.263 274.276C535.468 274.313 535.823 274.369 535.916 274.183C536.103 273.828 535.954 272.522 534.311 271.01C532.184 269.069 525.11 259.887 525.726 257.647C525.857 257.162 526.23 256.807 526.715 256.714C527.723 256.509 528.75 257.255 534.498 262.332C537.465 264.944 541.926 268.901 543.083 269.144C543.699 269.274 544.128 269.312 544.39 269.349C544.259 269.088 544.035 268.714 543.624 268.154C542.728 266.923 540.937 264.963 539.22 263.078C536.738 260.335 534.367 257.759 533.546 256.229C533.266 255.706 533.453 255.053 533.994 254.773C534.517 254.493 535.17 254.68 535.45 255.221C536.159 256.527 538.623 259.252 540.825 261.641C542.672 263.657 544.408 265.579 545.379 266.904C546.349 268.248 547.17 269.648 546.48 270.73C545.771 271.831 544.222 271.607 542.672 271.309C541.067 270.991 537.988 268.341 533.08 264.011C531.773 262.854 530.205 261.454 528.936 260.409C530.616 263.246 533.845 267.707 535.767 269.442C537.839 271.309 538.66 273.642 537.839 275.209C537.409 276.049 536.57 276.516 535.58 276.516L535.543 276.497Z"
        fill="#8C7CBD"
      />
      <path
        d="M546.461 267.464C544.949 267.464 543.046 266.774 542.094 266.232C541.571 265.934 541.385 265.281 541.683 264.758C541.982 264.235 542.635 264.049 543.158 264.347C544.539 265.131 546.424 265.411 546.834 265.262C546.872 265.206 546.909 265.169 546.928 265.15C546.928 265.15 546.89 264.515 544.875 262.63C541.944 259.887 537.335 253.877 535.487 251.414C535.188 251.022 535.17 250.313 535.487 249.939C536.775 248.39 547.805 253.541 547.917 253.579C548.029 253.635 548.103 253.635 548.122 253.635C548.141 253.56 548.159 252.757 546.741 251.6C545.024 250.201 535.412 246.673 521.004 242.157L520.743 242.082C517.682 241.13 516.394 236.782 516.264 236.296C516.096 235.718 516.432 235.121 517.01 234.971C517.608 234.822 518.186 235.139 518.335 235.718C518.615 236.744 519.735 239.506 521.378 240.029L521.639 240.104C532.314 243.463 545.584 247.886 548.103 249.939C550.492 251.899 550.567 253.803 549.895 254.848C549.279 255.8 548.066 256.08 546.946 255.52C545.826 254.96 541.683 253.317 538.921 252.366C541.011 255.072 544.203 259.066 546.349 261.063C548.309 262.892 549.13 264.161 549.074 265.299C549.037 266.27 548.365 266.811 548.103 267.016C547.693 267.334 547.114 267.464 546.461 267.464V267.464Z"
        fill="#8C7CBD"
      />
      <path
        d="M375.244 18.3273C375.244 18.3273 361.881 21.78 360.089 29.0773C358.279 36.3934 360.089 43.952 365.856 43.2428C371.623 42.5149 379.182 37.4758 384.239 37.8304C389.278 38.185 388.196 40.0887 386.404 43.2801C384.594 46.4716 387.841 51.8839 396.856 49.3644C405.87 46.8448 406.225 42.1603 412.701 43.952C419.177 45.7624 413.261 60.525 414.791 62.69C416.303 64.8549 416.583 67.7291 420.054 62.69C423.526 57.6509 428.565 50.8015 433.958 52.5931C439.371 54.4035 428.919 64.8363 423.507 67.0012L418.095 69.1662C418.095 69.1662 415.93 84.2835 412.682 86.4484C412.682 86.4484 434.294 83.5743 442.581 75.9969C450.867 68.4196 443.663 68.4383 445.1 64.463C446.538 60.5064 454.824 60.2078 454.824 55.318C454.824 50.4282 453.742 51.1374 446.183 47.5354C438.624 43.9333 440.771 42.123 441.853 40.3313C442.936 38.521 444.018 35.2922 437.896 33.4819C431.775 31.6715 417.273 27.3603 420.017 23.385C422.76 19.4284 424.048 11.4965 414.754 12.2244C405.46 12.9522 396.576 18.9618 391.294 18.2899C386.012 17.6181 381.085 16.1437 375.225 18.2899L375.244 18.3273Z"
        fill="#8C7CBD"
      />
      <path
        d="M392.862 99.7928C392.862 99.7928 392.694 99.7928 392.619 99.7555C392.003 99.6062 391.182 99.4196 390.193 99.2143C383.904 97.8332 370.821 94.9777 363.841 90.0319C355.311 83.985 356.86 68.9423 358.391 64.1459C359.847 59.5733 363.374 43.1496 363.411 42.9817C363.467 42.7017 363.654 42.4404 363.897 42.2911C364.139 42.1418 364.456 42.0858 364.736 42.1605C365.091 42.2538 365.278 42.2538 365.371 42.2538C365.483 42.1978 365.595 42.1605 365.726 42.1418C368.189 41.8432 371.119 40.6487 373.937 39.4916C377.707 37.9612 381.291 36.5055 384.296 36.7294C385.957 36.8414 387.935 37.1587 388.681 38.5398C389.465 39.9955 388.532 41.6566 387.338 43.7655C386.778 44.7733 386.908 46.0424 387.692 47.0316C389.204 48.9539 392.507 49.4205 396.557 48.3007C400.234 47.2742 402.436 45.8371 404.209 44.6987C406.766 43.0376 408.8 41.7312 413 42.8883C418.188 44.3254 416.994 51.7534 416.135 57.1658C415.837 58.9948 415.445 61.5143 415.706 62.0556C415.986 62.4475 416.228 62.8768 416.452 63.2874C416.676 63.6793 417.012 64.2952 417.199 64.3885C417.143 64.3512 417.722 64.1459 419.177 62.0369C422.219 57.6137 427.874 49.3832 434.332 51.5295C435.732 51.996 436.534 53.0039 436.572 54.3663C436.702 58.6402 428.677 66.0682 423.936 67.9718L419.047 69.9315C418.393 72.5257 415.575 83.4811 413.672 86.9525C413.578 87.1391 413.448 87.3817 413.298 87.6617C412.104 90.0319 409.584 94.9404 404.751 97.4786C404.228 97.7585 403.575 97.5532 403.295 97.0307C403.015 96.5081 403.22 95.8549 403.743 95.5749C407.961 93.354 410.256 88.8561 411.357 86.6912C411.507 86.3739 411.656 86.1313 411.749 85.926C413.746 82.324 417.012 69.0357 417.05 68.905C417.124 68.5691 417.367 68.2891 417.703 68.1585L423.115 65.9935C427.277 64.3325 434.481 57.3897 434.388 54.4596C434.388 54.161 434.313 53.8437 433.623 53.6011C429.311 52.164 424.982 57.4084 420.95 63.2687C419.289 65.6763 418.132 66.5721 417.012 66.5348C415.781 66.4788 415.127 65.359 414.567 64.3512C414.362 63.9966 414.157 63.6233 413.914 63.2687C413.168 62.2235 413.429 60.3385 414.008 56.8112C414.735 52.2013 415.762 45.8745 412.44 44.96C409.192 44.0455 407.849 44.9226 405.404 46.4904C403.519 47.7221 401.167 49.2339 397.155 50.3537C390.081 52.332 387.002 49.6071 386.013 48.338C384.706 46.6583 384.482 44.4561 385.471 42.7017C386.143 41.5259 387.02 39.9395 386.815 39.5289C386.796 39.4729 386.479 39.025 384.184 38.8571C381.664 38.6704 378.174 40.0888 374.777 41.4699C371.884 42.6457 368.917 43.8588 366.229 44.2321C365.987 44.3441 365.744 44.3814 365.334 44.3814C364.531 48.0394 361.769 60.6931 360.462 64.7804C359.119 68.9983 357.644 82.9585 365.11 88.2589C371.716 92.9434 384.519 95.7429 390.66 97.0866C391.668 97.3106 392.507 97.4972 393.142 97.6465C393.72 97.7772 394.075 98.3744 393.944 98.953C393.832 99.4569 393.385 99.7742 392.899 99.7742L392.862 99.7928ZM365.072 42.4591L365.035 42.4964L365.072 42.4591Z"
        fill="#8C7CBD"
      />
      <path
        d="M369.085 55.0755C367.592 54.5156 366.696 54.1796 365.744 53.9557C365.277 53.8437 364.792 53.7317 364.232 53.6384C363.654 53.5264 363.038 53.4704 362.235 53.2651C363.019 51.884 364.718 51.2868 366.323 51.6601C367.909 52.052 369.197 53.4517 369.085 55.0755V55.0755Z"
        fill="#8C7CBD"
      />
      <path
        d="M388.719 58.0614C389.391 57.1469 390.38 56.5683 391.462 56.2511C392.526 55.9151 393.721 55.8965 394.822 56.1391C395.923 56.4377 397.005 56.8856 397.808 57.6508C398.666 58.36 399.282 59.2932 399.637 60.3383C398.573 59.9837 397.715 59.5545 396.837 59.2372C395.979 58.8826 395.139 58.6586 394.299 58.4533C393.459 58.2294 392.601 58.1547 391.686 58.0801C390.772 58.0241 389.82 58.0241 388.7 58.0427L388.719 58.0614Z"
        fill="#8C7CBD"
      />
      <path
        d="M375.393 70.939C375.393 70.939 375.262 70.939 375.188 70.9204C375.038 70.883 371.567 70.2111 369.533 69.2593C368.823 68.9234 368.357 68.3821 368.151 67.6543C367.704 66.0679 368.861 64.2389 369.085 63.9029L374.422 53.3955C374.478 53.3022 374.534 53.2089 374.609 53.1342C375.729 51.9771 376.793 51.8464 377.502 51.9211C379.181 52.1264 380.171 53.7314 380.283 53.9181C380.413 54.1234 380.451 54.3846 380.413 54.6273C380.413 54.7019 379.2 62.5778 379.07 65.8626C378.902 69.9872 375.803 70.883 375.673 70.9204C375.579 70.939 375.486 70.9577 375.393 70.9577V70.939ZM376.27 54.534L370.951 65.0041C370.522 65.6573 370.111 66.6278 370.242 67.0944C370.242 67.1504 370.279 67.225 370.466 67.3183C371.94 68.0089 374.46 68.5874 375.318 68.7554C375.785 68.5314 376.849 67.8036 376.942 65.7879C377.054 62.8018 377.987 56.4749 378.248 54.7579C378.024 54.478 377.651 54.142 377.278 54.086C376.979 54.0487 376.662 54.2167 376.307 54.5526L376.27 54.534Z"
        fill="#8C7CBD"
      />
      <path
        d="M362.217 58.0054C363.28 57.6695 363.728 57.8748 364.773 58.2853C367.573 59.3865 368.543 63.5857 367.946 65.0975C367.349 66.6279 365.408 64.8922 362.608 63.791C361.694 63.4364 361.601 63.7164 360.835 63.4924L362.217 57.9867V58.0054Z"
        fill="#E5C8F9"
      />
      <path
        d="M384.351 68.4383C384.034 70.3793 387.487 69.838 391.518 70.4912C395.549 71.1445 398.666 72.7308 398.965 70.7899C399.282 68.8489 396.688 64.0897 392.656 63.4365C388.625 62.7833 384.669 66.4786 384.351 68.4383V68.4383Z"
        fill="#E5C8F9"
      />
      <path
        d="M374.236 79.0765C376.681 78.3299 378.734 77.938 380.731 77.3221C381.739 77.0608 382.653 76.6689 383.642 76.277C384.631 75.885 385.546 75.3251 386.722 74.7466C386.498 75.997 385.845 77.2101 384.874 78.0873C383.941 78.9832 382.746 79.6364 381.515 80.0096C380.264 80.3456 378.995 80.4949 377.745 80.3269C376.513 80.1776 375.281 79.823 374.217 79.0578L374.236 79.0765Z"
        fill="#8C7CBD"
      />
      <path
        d="M249.098 45.389C248.688 45.389 248.277 45.1464 248.109 44.7358C247.045 42.2535 247.027 37.5317 247.027 36.5612L244.47 27.5655C244.358 27.2109 244.47 26.819 244.712 26.539C244.955 26.2591 245.328 26.1284 245.702 26.2031L254.753 27.7895C255.183 27.8641 257.348 28.4987 257.758 33.3885C257.945 35.5907 258.617 37.0838 259.811 39.0808C260.128 39.5847 259.96 40.2566 259.438 40.5552C258.934 40.8538 258.262 40.7045 257.963 40.1819C256.638 37.961 255.817 36.1693 255.612 33.5564C255.351 30.3277 254.305 29.8798 254.305 29.8798L247.045 28.6107L249.173 36.0946C249.21 36.188 249.21 36.2999 249.21 36.4119C249.192 37.849 249.304 41.9549 250.106 43.8586C250.349 44.3998 250.088 45.0344 249.546 45.277C249.416 45.333 249.266 45.3703 249.117 45.3703L249.098 45.389Z"
        fill="#8C7CBD"
      />
      <path
        d="M288.739 65.564C288.553 65.564 288.366 65.508 288.179 65.4147C285.716 63.9403 264.029 50.9133 261.118 45.5383C260.931 45.1837 260.95 44.7731 261.155 44.4371C261.155 44.4371 262.032 43.0001 262.219 40.8911C262.275 40.2939 262.816 39.846 263.395 39.9019C263.992 39.9579 264.421 40.4805 264.384 41.0777C264.234 42.8508 263.693 44.2318 263.32 44.9784C266.493 49.4016 282.972 59.7784 289.281 63.5484C289.784 63.847 289.971 64.5189 289.654 65.0228C289.449 65.3587 289.094 65.5454 288.721 65.5454L288.739 65.564Z"
        fill="#8C7CBD"
      />
      <path
        d="M371.157 415.371C370.765 415.371 370.373 415.147 370.186 414.774C369.925 414.251 370.13 413.616 370.634 413.336C370.783 413.243 375.654 409.921 380.973 388.029C381.123 387.45 381.701 387.115 382.28 387.226C382.858 387.376 383.213 387.954 383.082 388.533C377.446 411.75 372.22 414.96 371.642 415.24C371.492 415.315 371.324 415.352 371.157 415.352V415.371Z"
        fill="#8C7CBD"
      />
      <path
        d="M393.086 422.911C392.526 422.911 392.041 422.463 392.004 421.903C391.5 413.766 402.231 391.239 402.698 390.269C402.959 389.727 403.612 389.504 404.135 389.765C404.676 390.026 404.9 390.661 404.639 391.202C404.527 391.426 393.683 414.195 394.15 421.754C394.187 422.351 393.739 422.855 393.142 422.892C393.123 422.892 393.105 422.892 393.067 422.892L393.086 422.911Z"
        fill="#8C7CBD"
      />
      <path
        d="M401.503 391.986C394.411 391.986 381.682 388.216 375.561 384.651C369.197 380.937 371.119 367.145 372.817 354.995C373.023 353.502 373.228 352.028 373.415 350.609C374.161 344.842 373.975 333.7 373.788 322.931C373.564 310.203 373.34 298.202 374.516 293.201C376.681 283.981 395.437 249.529 396.24 248.073C396.52 247.55 397.173 247.345 397.696 247.644C398.218 247.923 398.405 248.577 398.125 249.118C397.938 249.473 378.715 284.765 376.606 293.705C375.486 298.426 375.71 310.875 375.934 322.894C376.121 333.737 376.326 344.954 375.561 350.889C375.374 352.307 375.169 353.782 374.964 355.294C373.433 366.212 371.53 379.799 376.662 382.785C383.026 386.499 397.976 390.698 403.481 389.671C406.169 389.186 415.37 386.536 420.502 373.061C424.683 362.106 425.84 325.862 425.84 322.11C425.84 321.121 424.067 318.116 422.76 315.914C420.166 311.547 418.972 309.4 420.073 308.187C420.95 307.198 422.481 307.889 423.04 308.15C425.541 309.288 427.874 311.155 429.554 312.517C429.965 312.853 430.412 313.208 430.823 313.506C430.804 313.413 430.767 313.301 430.748 313.189C430.282 311.472 429.759 309.96 429.349 308.747C428.434 306.116 427.93 304.66 428.789 303.689C429.255 303.167 429.965 302.999 430.935 303.186C433.772 303.745 435.321 303.522 436.441 302.402C437.896 300.834 463.503 259.383 465.332 250.518C467.384 240.57 467.198 229.54 464.94 225.901C462.289 221.664 459.079 217.372 459.042 217.334C458.687 216.849 458.781 216.177 459.266 215.823C459.733 215.468 460.423 215.561 460.778 216.047C460.815 216.084 464.081 220.451 466.769 224.762C469.736 229.503 469.344 241.802 467.459 250.947C465.574 260.111 439.576 302.308 437.99 303.913C435.899 306.004 433.193 305.817 430.58 305.295C430.692 305.91 431.084 307.012 431.42 308.019C431.85 309.27 432.391 310.819 432.876 312.592C433.249 313.992 433.548 315.41 432.559 316.063C431.476 316.772 430.338 315.839 428.247 314.178C426.568 312.816 424.459 311.117 422.201 310.091C422.163 310.072 422.107 310.054 422.07 310.035C422.555 311.211 423.787 313.301 424.664 314.794C426.773 318.34 428.042 320.598 428.042 322.092C428.042 322.465 427.202 361.658 422.574 373.826C417.031 388.365 406.897 391.258 403.929 391.799C403.239 391.93 402.455 391.986 401.578 391.986H401.503Z"
        fill="#8C7CBD"
      />
      <path
        d="M499.672 357.869C498.72 357.869 497.843 357.832 497.078 357.776C492.599 357.44 477.033 352.326 463.297 347.81C455.048 345.104 447.265 342.547 443.383 341.52C432.895 338.758 426.325 330.677 426.064 330.341C425.691 329.874 425.765 329.202 426.232 328.829C426.698 328.456 427.37 328.531 427.744 328.997C427.8 329.072 434.145 336.854 443.925 339.43C447.863 340.475 455.683 343.032 463.969 345.757C476.903 350.012 493.028 355.294 497.246 355.611C503.554 356.096 514.248 354.753 517.869 349.079C521.508 343.368 521.956 329.576 520.986 326.179L520.855 325.712C519.698 321.607 516.992 312.014 508.164 309.065C497.115 305.388 477.836 300.088 475.783 300.442C475.354 300.554 474.887 301.599 474.607 302.234C474.178 303.186 473.73 304.194 472.685 304.212C471.584 304.212 471.043 303.074 470.781 302.589C470.389 301.805 469.997 300.89 469.605 299.938C469.008 298.501 467.758 295.515 467.067 295.347C466.377 295.87 465.462 297.027 464.66 298.053C462.924 300.256 461.767 301.693 460.46 301.245C459.322 300.853 459.322 299.397 459.322 298.856C459.322 297.456 459.583 296.131 459.807 294.974C460.386 291.932 460.404 290.887 458.407 290.14C453.63 288.348 452.566 280.417 452.566 277.505C452.566 276.908 453.051 276.423 453.648 276.423C454.246 276.423 454.731 276.908 454.731 277.505C454.731 279.39 455.477 286.725 459.173 288.106C463.055 289.562 462.457 292.641 461.935 295.366C461.73 296.374 461.543 297.438 461.506 298.501C461.972 297.979 462.532 297.251 462.98 296.71C463.95 295.459 464.884 294.302 465.723 293.668C466.489 293.108 467.198 293.126 467.664 293.257C469.382 293.724 470.427 296.224 471.64 299.099C471.976 299.901 472.312 300.704 472.648 301.394V301.357C473.17 300.237 473.842 298.725 475.316 298.352C478.079 297.68 501.594 304.604 508.892 307.03C518.802 310.334 521.825 321.084 522.964 325.134L523.095 325.582C524.196 329.464 523.804 343.835 519.717 350.236C515.853 356.32 506.036 357.851 499.691 357.851L499.672 357.869Z"
        fill="#8C7CBD"
      />
      <path
        d="M643.921 428.491C643.268 428.491 642.876 428.435 642.783 428.417C642.185 428.323 641.793 427.782 641.887 427.185C641.98 426.588 642.54 426.177 643.119 426.289C643.268 426.289 656.108 427.838 667.53 406.095C677.347 387.432 677.795 381.814 677.664 380.415C677.291 380.657 676.843 381.105 676.414 381.497C675.425 382.412 674.193 383.55 672.569 384.222C670.423 385.08 647.262 404.789 642.503 425.468C642.372 426.046 641.793 426.42 641.215 426.289C640.636 426.158 640.263 425.58 640.394 425.001C645.358 403.315 669.21 383.251 671.748 382.225C672.999 381.721 674.025 380.769 674.921 379.929C675.854 379.052 676.675 378.306 677.646 378.1C678.28 377.988 678.896 378.212 679.288 378.754C681.845 382.188 674.212 397.995 669.415 407.103C659.057 426.812 647.523 428.51 643.902 428.51L643.921 428.491Z"
        fill="#8C7CBD"
      />
      <path
        d="M645.582 425.953C645.264 425.953 644.966 425.823 644.761 425.561C644.369 425.095 644.443 424.423 644.891 424.031C645.04 423.9 659.654 411.508 665.981 398.052C666.242 397.51 666.877 397.286 667.418 397.529C667.959 397.79 668.183 398.425 667.94 398.966C661.408 412.852 646.907 425.151 646.291 425.673C646.086 425.841 645.843 425.935 645.6 425.935L645.582 425.953Z"
        fill="#8C7CBD"
      />
      <path
        d="M643.006 399.881C643.006 399.881 642.95 399.881 642.913 399.881C642.316 399.825 641.868 399.302 641.924 398.723C643.398 380.975 652.058 362.685 667.661 344.338C668.314 343.573 668.762 343.051 668.948 342.771C669.247 342.342 669.602 341.67 669.975 340.96C671.244 338.59 672.252 336.705 673.745 337.116C675.033 337.47 675.611 339.019 675.219 346.466C674.435 361.453 664.264 390.288 663.835 391.501C663.629 392.061 663.013 392.359 662.453 392.154C661.894 391.949 661.595 391.333 661.8 390.773C661.912 390.474 672.308 361.005 673.073 346.335C673.26 342.696 673.185 340.83 673.073 339.897C672.681 340.531 672.214 341.39 671.916 341.968C671.487 342.771 671.095 343.517 670.759 343.984C670.553 344.282 670.068 344.861 669.34 345.72C654.036 363.711 645.545 381.59 644.107 398.891C644.07 399.451 643.585 399.881 643.025 399.881H643.006Z"
        fill="#8C7CBD"
      />
      <path
        d="M643.566 410.518C643.473 410.518 643.361 410.518 643.268 410.481C642.689 410.313 642.372 409.716 642.54 409.137C648.829 387.6 663.499 360.538 663.648 360.277C663.928 359.754 664.6 359.568 665.122 359.848C665.645 360.127 665.832 360.781 665.552 361.322C665.402 361.583 650.864 388.458 644.63 409.753C644.5 410.22 644.07 410.537 643.585 410.537L643.566 410.518Z"
        fill="#8C7CBD"
      />
      <path
        d="M637.09 426.308C636.829 426.308 636.549 426.215 636.344 426.009C635.597 425.3 618.128 408.186 620.163 386.872C621.936 368.302 626.471 350.665 630.054 348.351C630.745 347.903 631.361 347.959 631.734 348.109C633.88 348.855 634.328 352.009 634.888 356.022C635.317 359.027 635.784 362.423 637.016 365.297C640.02 372.371 647.28 404.77 643.38 422.314C643.249 422.893 642.689 423.266 642.092 423.135C641.513 423.005 641.14 422.426 641.271 421.847C645.059 404.733 637.967 373.061 635.019 366.137C633.675 363.002 633.171 359.456 632.742 356.32C632.387 353.838 631.958 350.759 631.137 350.218C629.14 351.487 624.287 366.361 622.309 387.096C620.368 407.365 637.669 424.292 637.837 424.46C638.266 424.871 638.285 425.561 637.874 425.991C637.669 426.215 637.37 426.327 637.09 426.327V426.308Z"
        fill="#8C7CBD"
      />
      <path
        d="M638.49 423.751C638.079 423.751 637.687 423.508 637.501 423.116C628.262 402.475 626.657 373.491 626.639 373.211C626.601 372.614 627.068 372.11 627.665 372.072C627.684 372.072 627.703 372.072 627.721 372.072C628.3 372.072 628.766 372.52 628.804 373.099C628.804 373.379 630.39 401.971 639.479 422.239C639.722 422.781 639.479 423.415 638.938 423.658C638.789 423.732 638.639 423.751 638.49 423.751Z"
        fill="#8C7CBD"
      />
      <path
        d="M637.221 370.337C636.642 370.337 636.176 369.889 636.138 369.31C634.477 340.849 646.291 316.269 651.946 304.455C653.308 301.618 654.372 299.397 654.746 298.184C655.996 293.985 657.601 293.276 658.702 293.425C660.326 293.649 662.547 295.609 662.92 310.073C663.405 328.325 658.105 360.24 658.049 360.557C657.956 361.154 657.396 361.546 656.798 361.453C656.22 361.36 655.809 360.8 655.903 360.202C655.959 359.885 661.222 328.176 660.736 310.129C660.382 296.672 658.366 295.571 658.348 295.553C658.254 295.627 657.508 296.374 656.798 298.8C656.388 300.162 655.343 302.365 653.887 305.388C648.288 317.034 636.661 341.259 638.284 369.179C638.322 369.777 637.855 370.281 637.277 370.318C637.258 370.318 637.239 370.318 637.221 370.318V370.337Z"
        fill="#8C7CBD"
      />
      <path
        d="M642.503 395.271C641.961 395.271 641.495 394.86 641.439 394.3C641.084 391.053 642.241 386.126 644.35 377.167C645.414 372.651 646.739 367.052 648.232 360.109C652.6 339.878 655.082 311.864 655.119 311.584C655.175 310.987 655.698 310.558 656.295 310.595C656.892 310.651 657.321 311.174 657.284 311.771C657.265 312.051 654.746 340.195 650.36 360.557C648.867 367.518 647.542 373.136 646.478 377.653C644.425 386.368 643.286 391.184 643.604 394.058C643.66 394.655 643.249 395.177 642.652 395.252C642.615 395.252 642.577 395.252 642.54 395.252L642.503 395.271Z"
        fill="#8C7CBD"
      />
      <path
        d="M659.244 433.904C658.777 433.904 658.348 433.605 658.217 433.139C658.049 432.56 658.367 431.963 658.945 431.795C659.673 431.571 660.401 431.347 661.147 431.123C661.035 431.067 660.942 430.992 660.849 430.899C660.606 430.675 660.233 430.19 660.419 429.331C660.625 428.379 661.353 427.297 662.043 426.252C662.118 426.14 662.192 426.028 662.267 425.897C658.217 427.409 652.618 429.089 648.736 427.409C648.195 427.166 647.934 426.532 648.176 425.991C648.419 425.449 649.054 425.188 649.595 425.431C653.271 427.017 659.804 424.535 661.95 423.714C662.696 423.415 664.115 422.874 664.861 423.826C665.627 424.777 664.861 425.897 663.835 427.446C663.48 427.969 663.088 428.566 662.808 429.089C663.424 428.939 664.264 428.678 664.936 428.473C666.728 427.913 668.762 427.278 670.46 427.278H670.479C671.692 427.278 672.028 427.857 672.103 428.342C672.252 429.35 672.345 430.022 659.561 433.885C659.449 433.922 659.356 433.922 659.244 433.922V433.904Z"
        fill="#8C7CBD"
      />
      <path
        d="M633.451 425.673C633.283 425.673 633.115 425.636 632.947 425.543C632.76 425.449 628.449 423.172 624.996 419.44C623.242 417.536 621.936 417.069 621.357 417.237C621.114 417.312 620.984 417.499 620.909 417.835C620.76 418.674 620.237 418.992 619.939 419.104C618.912 419.496 617.904 418.674 616.728 417.723C616.635 417.648 616.542 417.573 616.43 417.48C616.43 417.611 616.449 417.741 616.467 417.853C616.654 420.037 616.952 423.322 614.601 424.385C614.06 424.628 613.425 424.385 613.164 423.863C612.921 423.322 613.164 422.687 613.686 422.426C614.638 421.978 614.433 419.514 614.302 418.04C614.153 416.435 614.06 415.352 614.955 414.848C615.926 414.289 616.915 415.091 618.072 416.024C618.334 416.23 618.669 416.509 618.987 416.733C619.323 415.95 619.939 415.39 620.722 415.147C621.674 414.867 623.709 414.867 626.564 417.947C629.755 421.399 633.899 423.583 633.936 423.602C634.459 423.881 634.664 424.535 634.384 425.057C634.197 425.431 633.824 425.636 633.432 425.636L633.451 425.673Z"
        fill="#8C7CBD"
      />
      <path
        d="M259.102 424.348C257.348 424.348 255.407 424.236 253.354 423.956C244.88 422.817 232.525 418.432 221.831 404.098C204.12 380.34 203.448 361.004 203.149 352.737C203.112 351.486 203.075 350.497 202.981 349.806C202.515 346.092 203 341.669 205.165 340.755C205.743 340.512 206.863 340.326 208.076 341.8C208.991 342.901 209.215 344.207 209.42 345.477C209.812 347.865 210.26 350.59 215.56 353.651C226.609 360.053 263.413 383.699 273.603 418.767C273.771 419.346 273.435 419.943 272.875 420.111C272.297 420.279 271.7 419.943 271.532 419.383C261.584 385.08 225.359 361.826 214.497 355.517C208.319 351.934 207.74 348.388 207.311 345.813C207.125 344.693 206.994 343.816 206.434 343.162C206.173 342.845 206.005 342.752 205.949 342.752C205.575 342.976 204.624 345.402 205.146 349.545C205.24 350.292 205.277 351.337 205.333 352.681C205.613 360.743 206.285 379.612 223.586 402.829C233.794 416.528 245.515 420.708 253.559 421.828C262.312 423.023 268.714 420.97 268.788 420.932C269.348 420.746 269.964 421.044 270.151 421.623C270.337 422.183 270.039 422.799 269.46 422.985C269.255 423.06 265.223 424.366 259.121 424.366L259.102 424.348Z"
        fill="#8C7CBD"
      />
      <path
        d="M269.329 420.54C269.329 420.54 269.199 420.54 269.143 420.54C268.452 420.428 251.935 417.461 234.168 401.597C216.363 385.715 211.044 364.121 210.988 363.897C210.857 363.319 211.212 362.74 211.79 362.591C212.369 362.46 212.947 362.815 213.097 363.393C213.153 363.599 218.322 384.558 235.605 399.973C252.887 415.389 269.348 418.357 269.516 418.394C270.113 418.487 270.505 419.047 270.393 419.645C270.3 420.167 269.852 420.54 269.329 420.54V420.54Z"
        fill="#8C7CBD"
      />
      <path
        d="M279.912 420.167C279.408 420.167 278.941 419.794 278.848 419.29C278.736 418.711 279.128 418.133 279.706 418.021C279.912 417.984 300.161 413.747 301.001 376.084C301.934 334.521 293.48 314.607 288.329 309.4C287.246 308.299 286.294 307.758 285.828 307.945C283.831 308.747 283.663 317.892 283.551 323.36C283.42 330.677 279.893 337.731 275.022 347.473C273.361 350.796 271.476 354.566 269.535 358.746C262.237 374.442 266.157 401.504 266.194 401.784C266.287 402.381 265.877 402.922 265.28 403.016C264.701 403.109 264.141 402.698 264.048 402.101C263.88 400.963 259.998 374.125 267.575 357.832C269.535 353.632 271.42 349.844 273.081 346.503C277.821 337.003 281.255 330.154 281.386 323.323C281.573 313.618 281.909 307.179 285.007 305.948C287.116 305.108 289.169 307.198 289.84 307.889C297.044 315.186 303.969 339.131 303.129 376.14C302.252 415.707 280.957 419.999 280.061 420.167C279.986 420.167 279.93 420.167 279.874 420.167H279.912Z"
        fill="#8C7CBD"
      />
      <path
        d="M254.679 429.798H254.642C248.277 429.574 248.053 428.454 247.941 427.838C247.792 427.054 248.277 426.42 249.397 425.934C251.45 425.02 252.906 425.113 254.324 425.188C255.481 425.244 256.564 425.318 258.094 424.833C260.95 423.956 261.398 422.874 261.398 422.855C261.528 422.276 262.126 421.94 262.685 422.071C263.264 422.202 263.619 422.818 263.488 423.396C263.413 423.751 262.797 425.636 258.729 426.886C256.825 427.483 255.425 427.39 254.194 427.334C253.354 427.278 252.626 427.241 251.786 427.409C252.645 427.521 253.69 427.595 254.716 427.633C255.313 427.651 255.78 428.155 255.761 428.753C255.743 429.331 255.257 429.798 254.679 429.798V429.798Z"
        fill="#8C7CBD"
      />
      <path
        d="M287.414 423.564C287.116 423.564 286.836 423.452 286.612 423.21C286.201 422.762 286.238 422.09 286.668 421.679C287.377 421.026 288.049 420.261 288.515 419.626C288.478 419.664 288.441 419.701 288.403 419.738C287.638 420.634 286.481 422.015 284.988 421.25C283.14 420.298 282.599 418.189 282.543 417.947C282.412 417.368 282.767 416.789 283.346 416.64C283.924 416.509 284.503 416.864 284.652 417.443C284.745 417.816 285.175 418.917 285.996 419.346C285.996 419.253 286.481 418.693 286.761 418.357C287.545 417.443 288.87 415.894 290.438 416.976C290.904 417.312 291.203 417.797 291.24 418.376C291.352 420.111 289.113 422.388 288.142 423.284C287.937 423.471 287.676 423.564 287.414 423.564V423.564Z"
        fill="#8C7CBD"
      />
      <path
        d="M279.781 415.445C279.632 415.445 279.482 415.408 279.333 415.352C278.792 415.109 278.549 414.456 278.792 413.915C278.96 413.542 295.552 376.103 290.27 331.218C290.195 330.621 290.624 330.079 291.222 330.023C291.8 329.93 292.36 330.378 292.416 330.975C297.772 376.476 280.938 414.438 280.77 414.829C280.584 415.221 280.192 415.464 279.781 415.464V415.445Z"
        fill="#8C7CBD"
      />
      <path
        d="M264.458 397.641C264.066 397.641 263.693 397.436 263.506 397.062C263.357 396.783 249.229 368.732 253.801 326.664C256.675 300.106 262.517 283.944 266.38 273.25C268.545 267.259 269.964 263.302 269.572 260.839C269.367 259.57 267.668 248.372 270.766 246.991C271.401 246.711 272.39 246.673 273.547 248.092C276.795 252.086 286.611 282.32 286.033 307.273C286.033 307.87 285.548 308.337 284.932 308.337C284.335 308.337 283.868 307.833 283.868 307.236C284.446 282.078 274.368 252.552 271.867 249.473C271.755 249.324 271.643 249.23 271.569 249.156C271.009 250.35 270.785 254.904 271.699 260.503C272.185 263.508 270.673 267.67 268.396 273.978C264.57 284.579 258.784 300.592 255.929 326.888C251.45 368.265 265.279 395.793 265.41 396.073C265.69 396.615 265.466 397.249 264.943 397.529C264.794 397.604 264.607 397.641 264.458 397.641V397.641Z"
        fill="#8C7CBD"
      />
      <path
        d="M264.813 373.378C264.234 373.378 263.749 372.912 263.731 372.333C263.731 371.96 263.488 362.852 267.015 343.2C270.505 323.697 274.481 276.945 274.518 276.478C274.574 275.881 275.096 275.47 275.694 275.489C276.291 275.545 276.739 276.068 276.683 276.665C276.646 277.132 272.67 323.995 269.143 343.592C265.671 362.983 265.895 372.184 265.895 372.277C265.895 372.874 265.448 373.378 264.85 373.397H264.813V373.378Z"
        fill="#8C7CBD"
      />
      <path
        d="M238.124 371.941C237.826 371.941 237.527 371.811 237.303 371.568C237.154 371.382 221.663 353.409 217.856 329.277C214.049 305.164 212.481 297.102 210.036 293.63C208.618 291.615 208.562 289.412 209.887 288.162C210.633 287.471 213.563 285.642 220.245 291.092C229.035 298.277 249.752 324.686 254.977 341.912C255.145 342.491 254.828 343.088 254.25 343.256C253.69 343.424 253.074 343.107 252.906 342.528C247.885 325.955 227.281 299.621 218.864 292.753C214.646 289.319 212.052 289.058 211.343 289.73C210.913 290.121 210.932 291.167 211.772 292.361C214.497 296.224 216.046 304.044 219.965 328.923C223.679 352.438 238.759 369.963 238.908 370.131C239.3 370.579 239.263 371.27 238.796 371.662C238.591 371.848 238.348 371.923 238.087 371.923L238.124 371.941Z"
        fill="#8C7CBD"
      />
      <path
        d="M261.939 391.687C261.621 391.687 261.323 391.556 261.099 391.295C261.006 391.183 251.972 380.284 240.009 362.871C227.934 345.327 221.495 313.824 221.234 312.498C221.122 311.92 221.495 311.341 222.074 311.229C222.652 311.117 223.231 311.491 223.343 312.069C223.399 312.386 229.968 344.469 241.782 361.639C253.689 378.959 262.667 389.802 262.76 389.914C263.133 390.38 263.077 391.052 262.611 391.444C262.405 391.612 262.163 391.687 261.92 391.687H261.939Z"
        fill="#8C7CBD"
      />
      <path
        d="M230.379 304.492C229.912 304.492 229.483 304.193 229.353 303.727C229.278 303.503 222.484 280.622 220.357 265.728C219.853 262.126 219.368 259.159 218.957 256.751C217.912 250.406 217.52 248.036 218.77 246.822C219.61 246.001 220.823 246.244 221.215 246.319C224.724 247.009 254.249 269.554 261.379 295.59C261.528 296.168 261.192 296.765 260.614 296.915C260.035 297.064 259.438 296.728 259.289 296.15C252.532 271.458 224.015 249.062 220.786 248.427C220.357 248.334 220.208 248.39 220.208 248.39C219.834 248.931 220.413 252.384 221.066 256.378C221.458 258.804 221.943 261.772 222.466 265.392C224.556 280.118 231.312 302.85 231.387 303.074C231.555 303.652 231.238 304.249 230.659 304.417C230.547 304.455 230.454 304.455 230.342 304.455L230.379 304.492Z"
        fill="#8C7CBD"
      />
      <path
        d="M254.156 336.761C253.652 336.761 253.186 336.388 253.092 335.865C253.074 335.753 251.021 324.891 242.622 312.685C233.962 300.069 228.718 271.925 228.494 270.73C228.382 270.133 228.774 269.573 229.352 269.461C229.95 269.368 230.51 269.741 230.603 270.32C230.659 270.618 235.978 299.21 244.395 311.435C253.055 324.051 255.127 334.988 255.201 335.455C255.313 336.033 254.921 336.612 254.324 336.705C254.249 336.705 254.193 336.705 254.119 336.705L254.156 336.761Z"
        fill="#8C7CBD"
      />
      <path
        d="M266.922 275.993H266.884C266.287 275.974 265.821 275.471 265.839 274.873C266.231 264.553 264.943 257.74 261.285 250.574L260.875 249.753C253.652 235.587 245.216 218.566 243.966 212.687C243.163 208.898 241.932 207.443 241.334 207.405C241.204 207.405 239.655 207.536 237.77 213.807C234.578 224.37 242.118 263.731 242.193 264.123C242.305 264.702 241.932 265.28 241.334 265.392C240.756 265.504 240.177 265.131 240.065 264.534C239.748 262.892 232.339 224.24 235.698 213.172C237.303 207.835 239.151 205.24 241.316 205.24C241.353 205.24 241.39 205.24 241.428 205.24C244.227 205.352 245.552 209.664 246.094 212.221C247.437 218.585 258.598 240.514 262.816 248.763L263.226 249.585C267.071 257.125 268.415 264.235 268.004 274.948C267.986 275.527 267.5 275.993 266.922 275.993V275.993Z"
        fill="#8C7CBD"
      />
      <path
        d="M259.177 293.275C258.617 293.275 258.15 292.846 258.094 292.268C258.094 292.137 257.049 278.438 256.022 269.704C255.015 261.193 244.787 244.9 244.675 244.732C244.358 244.228 244.507 243.556 245.011 243.239C245.496 242.922 246.187 243.071 246.504 243.575C246.933 244.265 257.105 260.447 258.169 269.442C259.195 278.214 260.259 291.969 260.259 292.1C260.296 292.697 259.867 293.219 259.27 293.257C259.251 293.257 259.214 293.257 259.177 293.257V293.275Z"
        fill="#8C7CBD"
      />
      <path
        d="M380.488 451.615C377.39 451.615 374.46 451.279 372.108 450.701C367.312 449.506 364.307 447.061 361.657 444.915C360.948 444.336 360.239 443.758 359.529 443.235C358.186 442.246 354.957 442.601 351.224 443.011C347.025 443.478 341.818 444.038 336.312 443.179C324.816 441.35 314.793 433.12 311.994 429.63C308.56 425.356 309.96 421.604 311.695 418.133C313.3 414.904 315.969 414.624 317.145 414.904C317.723 415.054 318.078 415.632 317.929 416.211C317.779 416.789 317.22 417.144 316.641 417.013C316.454 416.976 314.812 416.715 313.618 419.104C312.031 422.295 311.023 425.001 313.674 428.286C316.604 431.925 326.365 439.428 336.648 441.052C341.855 441.873 346.913 441.332 350.982 440.884C355.349 440.398 358.783 440.025 360.817 441.518C361.564 442.06 362.291 442.657 363.019 443.254C365.614 445.363 368.301 447.547 372.631 448.629C378.491 450.085 388.066 449.786 393.907 446.781C399.338 443.982 400.215 441.388 397.565 436.069C397.304 435.546 397.509 434.893 398.05 434.613C398.573 434.352 399.226 434.557 399.506 435.098C402.679 441.444 401.354 445.382 394.915 448.704C390.884 450.775 385.49 451.652 380.507 451.652L380.488 451.615Z"
        fill="#8C7CBD"
      />
      <path
        d="M398.517 435.565C398.517 435.565 397.49 419.794 396.595 419.01C395.68 418.245 385.023 419.701 382.821 418.6C380.619 417.498 379.406 423.508 377.987 424.255C376.569 425.001 373.583 422.071 375.617 418.32C377.651 414.568 369.309 407.831 367.2 407.98C365.091 408.148 351.784 413.617 341.482 414.214C331.18 414.811 322.986 412.907 320.15 414.4C317.313 415.893 314.7 417.573 318.638 422.127C322.594 426.681 331.739 435.677 343.796 435.789C355.852 435.901 358.652 433.997 360.201 432.187C361.75 430.376 364.046 427.241 365.557 430.507C367.088 433.773 367.218 438.196 370.037 439.036C372.855 439.876 392.209 444.28 398.498 435.546L398.517 435.565Z"
        fill="#8C7CBD"
      />
    </svg>