<svg
      width="1120"
      height="613"
      viewBox="0 0 1120 613"
      fill="none"
      xmlns="http://www.w3.org/2000/svg"
    >
      <path
        d="M88.9314 143.43C124.074 117.499 175.23 103.667 226.772 98.5968L226.703 98.6901L227.818 98.5833C271.889 94.3637 315.04 96.5321 358.23 98.9704C360.098 99.0759 361.967 99.1819 363.835 99.2879C405.151 101.631 446.54 103.979 488.782 100.957L488.746 100.458L488.782 100.957C522.849 98.5086 557.502 95.2103 592.367 91.8918C662.968 85.1719 734.443 78.3688 803.709 78.3688H803.727L803.745 78.3675C845.844 75.3292 889.596 72.4444 929.138 82.3876L929.139 82.3877C966.428 91.711 996.31 111.824 1016.55 135.004C1036.8 158.187 1048.32 184.408 1057.21 210.719C1082.95 286.95 1088.33 366.352 1072.88 443.856C1067 473.625 1057.02 504.469 1028.45 527.278C998.11 551.529 950.618 563.24 903.808 566.465C866.477 569.036 828.973 566.872 791.503 564.711C781.992 564.162 772.484 563.613 762.981 563.142C656.445 557.873 548.858 562.62 444.282 577.194C427.264 579.565 410.293 582.199 393.325 584.831C343.367 592.583 293.433 600.33 242.395 601.392C174.02 602.815 101.195 590.286 55.5345 555.886C2.18469 515.617 -2.17455 456.156 1.46468 401.893C4.75383 353.42 12.172 305.042 23.6493 257.137C33.4468 216.3 47.7675 173.787 88.9313 143.43L88.9314 143.43Z"
        fill="white"
        stroke="#8C7CBD"
      />
      <path
        d="M272.585 613C221.518 613 175.635 603.781 141.1 585.962C74.902 551.843 54.237 492.301 42.8187 438.604C32.5913 390.467 26.4268 341.428 24.3953 292.91C22.6441 250.286 25.5162 205.95 57.9497 170.453C90.5934 134.719 145.163 116.139 185.162 106.873C229.714 96.561 275.738 93.2347 320.22 90.0509C360.569 87.1522 402.32 84.1585 442.459 75.8902C475.243 69.1424 509.007 61.3493 541.721 53.7937C608.619 38.35 677.83 22.336 746.199 13.4499C784.587 5.51419 828.789 -3.56199 872.571 1.42753C909.908 5.65674 946.825 20.5303 976.526 43.387C1005.39 65.531 1024.79 92.6169 1038.52 113.763C1085.6 186.372 1112.71 263.401 1119.08 342.616C1121.46 371.65 1120.76 405.103 1097.71 432.665C1076.35 458.23 1035.51 478.235 982.691 488.927C946.335 496.293 908.087 499.001 871.1 501.615C861.503 502.28 851.906 502.993 842.379 503.706C736.602 512.069 633.067 530.317 534.716 557.878C518.744 562.344 502.562 567.191 486.941 571.848C440.497 585.676 392.513 599.98 342.076 607.63C318.259 611.242 294.932 613 272.515 613H272.585ZM188.665 113.858C150.347 122.744 98.1589 140.421 67.1964 174.302C36.304 208.136 33.572 251.189 35.2532 292.673C37.2146 340.952 43.3791 389.707 53.5365 437.559C64.6746 489.783 84.499 547.566 147.615 580.069C194.689 604.352 264.74 611.764 339.694 600.407C389.08 592.899 436.574 578.786 482.528 565.053C498.219 560.396 514.401 555.549 530.513 551.035C629.845 523.189 734.361 504.799 841.118 496.34C850.715 495.58 860.382 494.915 869.979 494.202C906.476 491.636 944.163 488.975 979.539 481.799C1029.69 471.63 1068.29 452.86 1088.26 428.958C1109.83 403.06 1110.46 370.937 1108.22 342.948C1101.92 264.637 1075.09 188.511 1028.57 116.662C1015.19 96.0383 996.281 69.5701 968.4 48.1865C940.31 26.6127 905.635 12.5946 870.75 8.65046C829.42 3.94605 786.548 12.7846 748.721 20.5303C680.492 29.4164 611.702 45.2878 545.153 60.684C512.37 68.2871 478.465 76.0802 445.541 82.8755C404.351 91.3339 362.11 94.3751 321.271 97.3213C277.419 100.458 232.026 103.736 188.595 113.763L188.665 113.858Z"
        fill="#8C7CBD"
      />
      <path
        d="M128.676 178.038V182.268C116.133 189.548 108.364 198.733 105.408 209.899C108.592 207.803 111.472 206.774 114.086 206.774C118.444 206.774 122.12 208.527 125.114 212.072C128.107 215.616 129.623 219.923 129.623 225.03C129.623 230.67 127.653 235.434 123.712 239.245C119.771 243.056 114.92 245 109.198 245C103.476 245 98.6253 242.561 94.7979 237.683C90.9326 232.804 89 226.745 89 219.465C89 209.251 92.9032 200.067 100.672 191.987C108.44 183.869 117.8 179.22 128.714 178L128.676 178.038ZM178.091 178.038V182.268C165.547 189.548 157.779 198.733 154.823 209.899C158.006 207.803 160.924 206.774 163.577 206.774C167.859 206.774 171.535 208.527 174.528 212.072C177.522 215.616 179 219.923 179 225.03C179 230.67 177.029 235.434 173.126 239.245C169.223 243.056 164.373 245 158.651 245C152.928 245 148.04 242.561 144.213 237.683C140.385 232.804 138.453 226.745 138.453 219.465C138.453 209.251 142.318 200.067 150.086 191.987C157.855 183.869 167.177 179.22 178.091 178V178.038Z"
        fill="#8C7CBD"
      />
      <path
        d="M1010.32 437.962V433.732C1022.87 426.452 1030.64 417.267 1033.59 406.101C1030.41 408.197 1027.53 409.226 1024.91 409.226C1020.56 409.226 1016.88 407.473 1013.89 403.928C1010.89 400.384 1009.38 396.077 1009.38 390.97C1009.38 385.33 1011.35 380.566 1015.29 376.755C1019.23 372.944 1024.08 371 1029.8 371C1035.52 371 1040.34 373.439 1044.2 378.317C1048.07 383.196 1050 389.255 1050 396.535C1050 406.749 1046.1 415.933 1038.33 424.013C1030.56 432.131 1021.2 436.78 1010.29 438L1010.32 437.962ZM960.909 437.962V433.732C973.453 426.452 981.221 417.267 984.177 406.101C980.994 408.197 978.076 409.226 975.423 409.226C971.141 409.226 967.465 407.473 964.472 403.928C961.478 400.384 960 396.077 960 390.97C960 385.33 961.971 380.566 965.874 376.755C969.777 372.906 974.627 371 980.349 371C986.072 371 990.96 373.439 994.787 378.317C998.615 383.196 1000.55 389.255 1000.55 396.535C1000.55 406.749 996.682 415.933 988.914 424.013C981.145 432.131 971.823 436.78 960.909 438V437.962Z"
        fill="#8C7CBD"
      />
    </svg>