<svg width="16" height="30" viewBox="0 0 16 30" fill="none" xmlns="http://www.w3.org/2000/svg">
<path d="M6.59139 30C5.63328 30 4.85317 29.2172 4.85317 28.2543V16.0342L1.75915 16.0363C0.80869 16.0363 0.028578 15.2612 0.0202345 14.3073L7.16976e-05 12.2103C-0.00410002 11.7404 0.173893 11.2984 0.503459 10.9653C0.831634 10.6315 1.27036 10.4478 1.73829 10.4478H4.85317V7.30553C4.85317 2.59485 7.24634 0 11.5912 0C13.3099 0 14.8104 0.122201 14.8243 0.123597C15.4952 0.183651 16 0.738094 16 1.41334V4.60453C16 5.31819 15.4215 5.89917 14.7109 5.89917H12.689C11.8429 5.89917 11.1539 6.59048 11.1539 7.44099L11.1149 10.4478H14.2006C14.6963 10.4478 15.1691 10.6615 15.4987 11.033C15.8283 11.4045 15.9847 11.901 15.927 12.3954L15.6843 14.4902C15.5828 15.3708 14.8403 16.0342 13.9586 16.0342H11.1107V28.2543C11.1107 29.2172 10.3306 30 9.37253 30H6.59139Z" fill="#180A42"/>
</svg>
