<svg width="155" height="45" viewBox="0 0 155 45" fill="none" xmlns="http://www.w3.org/2000/svg">
<path d="M55.144 15.896H58.488V32H55.452V17.238C55.452 17.2233 55.4227 17.1133 55.364 16.908C55.32 16.7027 55.276 16.49 55.232 16.27C55.188 16.05 55.1587 15.9253 55.144 15.896ZM64.6387 15.918L70.9747 25.554C71.1361 25.7887 71.2901 26.0307 71.4367 26.28C71.5834 26.5147 71.7301 26.7567 71.8767 27.006C71.8621 26.7273 71.8327 26.4487 71.7887 26.17C71.7594 25.8767 71.7447 25.5907 71.7447 25.312V15.918H74.1867V32.11H71.8107L64.5727 21.066C64.4261 20.8167 64.2721 20.5673 64.1107 20.318C63.9494 20.0687 63.7954 19.8267 63.6487 19.592C63.6781 19.8267 63.7074 20.0687 63.7367 20.318C63.7661 20.5673 63.7807 20.8167 63.7807 21.066V32H61.3387V17.26L61.0307 15.918H64.6387ZM76.7358 15.896H80.0798V23.09L85.4478 15.896H88.2638L83.0278 22.936L88.7258 32H85.2058L80.0798 23.838V32H77.0438V17.238L76.7358 15.896ZM93.016 15.896V26.61C93.016 27.6807 93.3386 28.5387 93.984 29.184C94.6293 29.8293 95.4873 30.152 96.558 30.152C97.2913 30.152 97.922 30.0127 98.45 29.734C98.978 29.4407 99.3813 29.03 99.66 28.502C99.9533 27.974 100.1 27.3433 100.1 26.61V15.896H102.586V25.884C102.586 27.424 102.307 28.6633 101.75 29.602C101.193 30.526 100.437 31.2007 99.484 31.626C98.5306 32.0367 97.4526 32.242 96.25 32.242C94.2113 32.242 92.642 31.692 91.542 30.592C90.4566 29.492 89.914 27.9227 89.914 25.884V17.216L89.562 15.896H93.016ZM116.117 19.658C116.117 20.2887 115.97 20.8607 115.677 21.374C115.383 21.8727 114.987 22.2833 114.489 22.606C113.99 22.9287 113.44 23.134 112.839 23.222C113.557 23.3393 114.217 23.596 114.819 23.992C115.435 24.3733 115.926 24.8647 116.293 25.466C116.674 26.0673 116.865 26.7567 116.865 27.534C116.865 28.3553 116.696 29.052 116.359 29.624C116.036 30.196 115.596 30.658 115.039 31.01C114.481 31.362 113.858 31.6187 113.169 31.78C112.479 31.9267 111.783 32 111.079 32H105.447V17.238C105.447 17.2233 105.417 17.1133 105.359 16.908C105.315 16.7027 105.271 16.49 105.227 16.27C105.183 16.05 105.153 15.9253 105.139 15.896H110.859C111.489 15.896 112.113 15.9547 112.729 16.072C113.359 16.1747 113.924 16.3653 114.423 16.644C114.936 16.908 115.347 17.2893 115.655 17.788C115.963 18.272 116.117 18.8953 116.117 19.658ZM112.927 20.076C112.927 19.6067 112.831 19.2253 112.641 18.932C112.45 18.6387 112.186 18.426 111.849 18.294C111.511 18.1473 111.123 18.074 110.683 18.074H108.483V22.188H110.749C111.159 22.188 111.526 22.1 111.849 21.924C112.186 21.748 112.45 21.506 112.641 21.198C112.831 20.8753 112.927 20.5013 112.927 20.076ZM113.675 27.182C113.675 26.522 113.506 25.9867 113.169 25.576C112.831 25.1507 112.399 24.8427 111.871 24.652C111.343 24.4613 110.785 24.366 110.199 24.366H108.483V29.822H110.881C111.423 29.822 111.9 29.7193 112.311 29.514C112.736 29.3087 113.066 29.008 113.301 28.612C113.55 28.216 113.675 27.7393 113.675 27.182ZM125.626 15.896L131.324 32H128.068L126.484 27.38H121.688L120.082 32H117.53L123.228 15.896H125.626ZM124.086 19.724L122.436 25.224H125.758L124.086 19.724ZM134.506 18.074H130.04V15.896H142.184V18.074H137.652V32H134.506V18.074ZM143.617 15.896H153.737V18.074H146.961V22.628H152.153V24.806H146.961V29.822H153.737V32H143.947V17.238L143.617 15.896Z" fill="#0F003D"/>
<path d="M9.44991 6.84557C10.9948 6.54734 12.5622 6.38468 14.1297 6.38468C17.0839 6.38468 20.0336 6.91786 22.8343 7.97972H22.8478L22.902 8.00683C23.286 8.15142 23.6609 8.30957 24.0358 8.47675L24.1397 8.52194C24.5192 8.69364 24.8941 8.87438 25.2645 9.06416L25.3639 9.11838C25.7253 9.30364 26.0821 9.50246 26.439 9.70579C26.4932 9.74194 26.5474 9.77357 26.5971 9.8052C26.9133 9.99046 27.2204 10.1848 27.5231 10.3836C27.5547 10.4062 27.6089 10.4333 27.6767 10.4785C29.0002 11.3641 30.265 12.3898 31.4304 13.5601H31.435C31.435 13.5601 31.4575 13.5872 31.4666 13.6008C31.4214 13.4923 31.3807 13.3839 31.3356 13.2799H31.3311L31.3085 13.2212C31.1007 12.7558 30.8748 12.2994 30.6309 11.8476C29.2035 9.17712 27.2656 6.82749 24.9348 4.92971H24.9302V4.92067C24.7992 4.81675 24.6592 4.71282 24.5192 4.60438C24.4153 4.52304 24.3204 4.44623 24.2346 4.37845C24.1578 4.32423 24.072 4.26549 23.9816 4.19771C23.8235 4.08475 23.6699 3.97178 23.5209 3.86786C23.2905 3.70519 23.0556 3.55156 22.8207 3.40245H22.8117L22.7846 3.37986C22.5361 3.22171 22.2877 3.06808 22.0347 2.92349H22.0302C19.3832 1.36911 16.3883 0.356964 13.1901 0C11.5142 2.09208 10.272 4.41008 9.44991 6.84105V6.84557Z" fill="url(#paint0_linear_39_54)"/>
<path d="M6.44599 32.4656C6.41437 31.9369 6.3963 31.4083 6.3963 30.8796C6.3963 27.929 6.92933 24.9739 7.99086 22.1769V22.1634L8.01345 22.1182C8.14896 21.7748 8.28448 21.4314 8.43354 21.097C8.50582 20.9253 8.58713 20.7626 8.65488 20.609C8.71812 20.4734 8.78136 20.3243 8.85816 20.1662V20.1571L8.91236 20.0577C8.94398 19.9945 8.97561 19.9312 9.00723 19.8725L9.0253 19.8318C9.0253 19.8318 9.02981 19.8273 9.02981 19.8228C9.02981 19.8182 9.02981 19.8137 9.02981 19.8092L9.04336 19.7866L9.07047 19.7324C9.11112 19.6511 9.15178 19.5697 9.19695 19.4884H9.20146V19.4703H9.2105C9.27374 19.3438 9.33698 19.2218 9.40926 19.0998V19.0908L9.41829 19.0817L9.43184 19.0546L9.47249 18.9914C9.5538 18.8377 9.63963 18.6841 9.72998 18.5259H9.73449V18.5124L9.74353 18.5034V18.4943C9.86097 18.3045 9.97842 18.1057 10.1094 17.9024V17.8934C10.2314 17.7081 10.3533 17.5183 10.4753 17.3285L10.5024 17.2924C10.5566 17.2111 10.6244 17.1071 10.7012 16.9942L10.7418 16.9354V16.9264L10.7599 16.9128H10.7644L10.778 16.8857L10.787 16.8767V16.8677L10.8547 16.7818V16.7728C10.9586 16.6327 11.058 16.4926 11.1664 16.348H11.1709L11.1845 16.3209C11.1845 16.3209 11.189 16.3209 11.189 16.3164C11.2794 16.1899 11.3742 16.0679 11.4736 15.9414C11.5368 15.86 11.5865 15.7968 11.6181 15.7561C11.7085 15.6341 11.8034 15.5166 11.9027 15.3991L11.9479 15.3404C12.0563 15.2048 12.1738 15.0648 12.3002 14.9202H12.3048V14.9111C12.7023 14.4502 13.1224 14.0029 13.5605 13.5601C13.5696 13.5601 13.5741 13.5465 13.5831 13.5375C13.4657 13.5872 13.3392 13.6369 13.2217 13.6911C8.89429 15.6341 5.29412 18.8965 2.9226 22.9677L2.91357 22.9812C1.36869 25.6336 0.356853 28.6294 0.00451279 31.8195C2.09144 33.4958 4.40423 34.7339 6.83447 35.5563C6.82092 35.4749 6.80737 35.3981 6.79833 35.3303C6.76671 35.1632 6.73509 34.996 6.70347 34.8198V34.7881C6.61765 34.2775 6.54989 33.7624 6.5002 33.2473C6.48665 33.0982 6.47761 32.9581 6.46858 32.8226C6.45955 32.7096 6.44599 32.5921 6.43696 32.4656H6.44599Z" fill="url(#paint1_linear_39_54)"/>
<path d="M13.5379 31.4083C13.5605 31.458 13.5786 31.5077 13.6012 31.5529C13.6373 31.6432 13.6689 31.72 13.696 31.7833C15.6384 36.1075 18.9043 39.7133 22.9698 42.081C25.6259 43.6309 28.6208 44.643 31.8189 45C33.4948 42.9079 34.737 40.5899 35.5636 38.1589C34.0188 38.4572 32.4558 38.6153 30.8884 38.6153C27.9342 38.6153 24.9799 38.0867 22.1793 37.0248C21.8179 36.8847 21.4611 36.7356 21.1087 36.582L21.0319 36.5504H21.0139C20.8241 36.46 20.6389 36.3787 20.4673 36.2973L20.4537 36.2883H20.4402L20.4176 36.2702C20.2911 36.2115 20.1691 36.1527 20.0472 36.094H20.0381L20.0246 36.0804H20.0156L19.9839 36.0578L19.9207 36.0262H19.9162L19.8665 36.0036C19.7807 35.9629 19.7039 35.9178 19.6316 35.8816L19.5774 35.8545H19.5729L19.5458 35.8364L19.5142 35.8184H19.4961V35.8093C19.4057 35.7641 19.3244 35.7189 19.2431 35.6738C19.2025 35.6557 19.1528 35.6286 19.0941 35.5924H19.0805L19.0489 35.5698H19.0399C18.9043 35.4885 18.7643 35.4072 18.6198 35.3258L18.5565 35.2897C18.5565 35.2897 18.4752 35.24 18.4075 35.1948C18.299 35.1361 18.1951 35.0728 18.0958 35.0141L18.0235 34.9689L18.0145 34.9598C17.9783 34.9372 17.9106 34.8966 17.8338 34.8469C17.6757 34.7475 17.5176 34.6435 17.3595 34.5396L17.3414 34.5261L17.3233 34.517H17.3143C17.1698 34.4131 17.0162 34.3092 16.8581 34.1917H16.849V34.1826H16.8355C16.7045 34.0878 16.578 33.9974 16.4606 33.907H16.456C16.456 33.907 16.447 33.9025 16.4425 33.898C16.2257 33.7398 16.0179 33.5817 15.8101 33.419L15.7694 33.3874L15.7559 33.3738C15.6475 33.288 15.5345 33.1976 15.4261 33.1118L15.4126 33.0982H15.4081L15.3629 33.062H15.3584L15.3493 33.0485L15.3403 33.0395C15.1957 32.9265 15.0602 32.809 14.9338 32.7006C14.4685 32.2984 14.0168 31.8827 13.5786 31.4399L13.547 31.4083H13.5379Z" fill="url(#paint2_linear_39_54)"/>
<path d="M31.4169 31.467C31.5072 31.4309 31.6021 31.3947 31.6924 31.354H31.697L31.7828 31.3134C35.4552 29.6641 38.5992 27.0614 40.921 23.8217C41.3321 23.2433 41.7251 22.6514 42.0819 22.0368L42.0955 22.0143C43.6313 19.3664 44.6432 16.3751 44.9955 13.1851C42.904 11.5087 40.5867 10.2661 38.1565 9.44372C38.4592 10.9891 38.6173 12.557 38.6173 14.1249C38.6173 17.08 38.0842 20.0306 37.0227 22.8321C36.3858 24.513 35.5546 26.1442 34.5247 27.6805C33.6393 29.0134 32.6139 30.2696 31.444 31.4444C31.435 31.4534 31.4259 31.4625 31.4169 31.467Z" fill="url(#paint3_linear_39_54)"/>
<path d="M24.343 2.19148C28.1058 4.72638 31.1233 8.28246 33.0024 12.4666C33.7432 14.1114 34.3034 15.851 34.6692 17.6674C34.9764 19.2173 35.1435 20.8214 35.1435 22.4661V22.5474C35.1932 22.4209 35.252 22.2989 35.2971 22.1769C36.2819 19.5878 36.7697 16.8586 36.7697 14.1249C36.7697 12.1729 36.5213 10.2254 36.0199 8.32764C35.2384 5.34993 33.8336 2.51682 31.8189 0C29.1583 0.298223 26.6422 1.05282 24.343 2.19148Z" fill="url(#paint4_linear_39_54)"/>
<path d="M0.00903702 13.1851C0.307171 15.8465 1.06153 18.3633 2.19986 20.6677C4.74302 16.9038 8.289 13.8854 12.4719 12.0057C13.2488 11.6578 14.0484 11.3415 14.8705 11.0749H14.875C15.0015 11.0297 15.1235 10.9936 15.2454 10.9574H15.2545C15.3855 10.9122 15.5165 10.8716 15.652 10.8354H15.67L15.7062 10.8219C15.914 10.7586 16.1172 10.7044 16.3205 10.6502C16.5238 10.5959 16.7451 10.5417 16.971 10.492L16.9936 10.483C17.2104 10.4333 17.4317 10.3881 17.6531 10.3384H17.6802V10.3339H17.6983C17.7931 10.3158 17.9106 10.2887 18.0506 10.2616L18.1184 10.248H18.159L18.1816 10.239H18.2042C18.2493 10.2299 18.29 10.2209 18.299 10.2209H18.3216C18.4842 10.1848 18.6559 10.1576 18.8366 10.1351H18.8682C19.0218 10.1034 19.1799 10.0808 19.3335 10.0628C19.4374 10.0492 19.5232 10.0402 19.5774 10.0356C19.7219 10.0131 19.871 9.9995 20.0246 9.98594H20.0291L20.0969 9.9769H20.1014C20.273 9.95883 20.4492 9.94076 20.6434 9.93172H20.657C21.2623 9.88202 21.8766 9.85942 22.4955 9.85942H22.5361C22.4142 9.80972 22.2967 9.7555 22.1748 9.70579C19.5864 8.72527 16.849 8.23275 14.1161 8.23275C12.1692 8.23275 10.2223 8.48579 8.32514 8.98283C5.35284 9.76453 2.51606 11.1743 0 13.1851H0.00903702Z" fill="url(#paint5_linear_39_54)"/>
<path d="M8.24382 30.8886C8.24382 32.8361 8.49227 34.7836 8.99367 36.6769C9.77514 39.6501 11.18 42.4832 13.1901 45C15.8462 44.7018 18.3623 43.9472 20.666 42.813C16.9077 40.2691 13.8903 36.7175 12.0111 32.5379C11.8395 32.1584 11.6814 31.7743 11.5278 31.3857V31.3766C11.4465 31.1824 11.3787 30.9926 11.311 30.8118V30.7938L11.2974 30.7621C11.2523 30.6266 11.2071 30.5 11.1664 30.3735H11.1619V30.3509L11.1529 30.3419L11.1393 30.2967C11.0987 30.1747 11.0625 30.0618 11.0309 29.9578L11.0083 29.8901H11.0038V29.8765C10.9496 29.7138 10.8954 29.5421 10.8457 29.3569V29.3343C10.778 29.1355 10.7283 28.9412 10.6786 28.7469C10.6695 28.7198 10.6515 28.6565 10.6334 28.5752C10.6018 28.4532 10.5702 28.3312 10.5431 28.2227V28.2137L10.525 28.1369V28.1278C10.516 28.0872 10.4979 28.0149 10.4798 27.92C10.4392 27.7392 10.3985 27.554 10.3579 27.3687V27.328L10.3488 27.3145C10.3172 27.1383 10.2766 26.9485 10.2449 26.7497C10.2133 26.5825 10.1907 26.4198 10.1681 26.2707C10.123 25.9996 10.0913 25.742 10.0597 25.48L10.0507 25.4257V25.4077C10.0326 25.2676 10.0191 25.132 10.001 24.9874V24.9061L9.99197 24.8926C9.9739 24.7073 9.96035 24.522 9.9468 24.3503C9.90163 23.7403 9.87903 23.1258 9.87903 22.5023V22.4571C9.82934 22.5836 9.77514 22.7056 9.72545 22.8321C8.74523 25.4212 8.25286 28.1549 8.25286 30.8886H8.24382Z" fill="url(#paint6_linear_39_54)"/>
<path d="M22.4639 35.1451C22.5858 35.1948 22.7123 35.249 22.8343 35.2987C25.4226 36.2792 28.1555 36.7718 30.8884 36.7718C32.8353 36.7718 34.7822 36.5187 36.6794 36.0217C39.6517 35.2355 42.4885 33.8302 45 31.8194C44.7064 29.158 43.9475 26.6367 42.8092 24.3368C40.275 28.1007 36.72 31.1191 32.5417 32.9988C30.8974 33.7443 29.1583 34.3046 27.3424 34.6661C25.7795 34.9824 24.1623 35.1496 22.5045 35.1496C22.491 35.1496 22.4774 35.1451 22.4639 35.1451Z" fill="url(#paint7_linear_39_54)"/>
<defs>
<linearGradient id="paint0_linear_39_54" x1="45.0185" y1="22.5" x2="-1.21063e-06" y2="22.5" gradientUnits="userSpaceOnUse">
<stop stop-color="#65C9D3"/>
<stop offset="1" stop-color="#65C8D0"/>
</linearGradient>
<linearGradient id="paint1_linear_39_54" x1="45.0299" y1="22.5046" x2="0.0299401" y2="22.5046" gradientUnits="userSpaceOnUse">
<stop stop-color="#60D8F4"/>
<stop offset="1" stop-color="#65C8D0"/>
</linearGradient>
<linearGradient id="paint2_linear_39_54" x1="45" y1="22.5" x2="0" y2="22.5" gradientUnits="userSpaceOnUse">
<stop stop-color="#65C9D3"/>
<stop offset="1" stop-color="#65C8D0"/>
</linearGradient>
<linearGradient id="paint3_linear_39_54" x1="45" y1="22.5" x2="0" y2="22.5" gradientUnits="userSpaceOnUse">
<stop stop-color="#65C9D2"/>
<stop offset="1" stop-color="#65C8D0"/>
</linearGradient>
<linearGradient id="paint4_linear_39_54" x1="45" y1="22.5" x2="0" y2="22.5" gradientUnits="userSpaceOnUse">
<stop stop-color="#0F003D"/>
<stop offset="1" stop-color="#6461DA"/>
</linearGradient>
<linearGradient id="paint5_linear_39_54" x1="45.018" y1="22.5" x2="0.0180397" y2="22.5" gradientUnits="userSpaceOnUse">
<stop stop-color="#0F003D"/>
<stop offset="1" stop-color="#6461DA"/>
</linearGradient>
<linearGradient id="paint6_linear_39_54" x1="45" y1="22.5045" x2="0" y2="22.5045" gradientUnits="userSpaceOnUse">
<stop stop-color="#0F003D"/>
<stop offset="1" stop-color="#6461DA"/>
</linearGradient>
<linearGradient id="paint7_linear_39_54" x1="45" y1="30.5542" x2="22.4639" y2="30.5542" gradientUnits="userSpaceOnUse">
<stop stop-color="#0F003D"/>
<stop offset="1" stop-color="#6461DA"/>
</linearGradient>
</defs>
</svg>
