<svg width="29" height="29" viewBox="0 0 29 29" fill="none" xmlns="http://www.w3.org/2000/svg">
<path d="M23.6213 1.05848C21.7451 4.08304 19.5609 7.13167 17.1579 9.97867C14.0372 6.17164 10.9719 3.20426 9.71184 2.43985C5.81781 0.0743714 -3.03618 5.25675 1.33229 7.46874C5.24788 9.44899 9.22509 11.8777 12.848 14.6163C9.53316 17.8365 5.95337 20.539 2.29039 22.2755C0.438877 23.1543 -2.54634 24.2829 4.1419 23.5305C8.0575 23.0911 12.848 20.8069 17.1395 18.1736C20.1093 20.8851 22.6416 23.8134 24.4192 26.853C25.4389 28.6015 26.7914 31.4335 25.5776 24.963C25.0323 22.0468 23.3317 18.6942 21.2214 15.474C24.7334 12.9822 27.4229 10.6167 28.2023 9.55733C30.8795 5.91884 26.1691 -3.05552 23.6213 1.05547V1.05848Z" fill="#E01C1C"/>
</svg>
